<svg version="1.2" xmlns="http://www.w3.org/2000/svg" viewBox="0 0 400 400" width="500" height="500">
	<style>
		.s0 { fill: #8df097 } 
	</style>
	<path id="[seq]" class="s0" aria-label="[seq]"  d="m99.4 136.6h-32.2v125.9h32.2v-14.1h-14.7v-97.7h14.7zm21.3 78.1v-2.5h-17.5v2.7q0 5.5 1.3 10 1.3 4.3 4.4 7.4 3.2 3.1 8.5 4.7 5.5 1.5 13.7 1.5 6.2 0 11.2-1.3 5.2-1.2 8.9-4.2 3.8-2.9 5.9-7.3 2.1-4.5 2.1-10.5 0-8.6-3.8-13.5-3.8-5.1-12.9-8.2l-11.7-3.9q-4.9-1.6-6.8-3.8-1.6-2.3-1.6-5.1 0-4.1 2.6-6 2.8-2.1 6.5-2.1 4.8 0 6.6 2.8 2 2.6 2 8.6h17.4v-3.1q0-10.3-6.3-15.9-6.3-5.7-19.6-5.7-7.4 0-12.8 1.9-5.2 1.8-8.5 4.9-3.4 3.1-5 7.3-1.5 4.1-1.5 8.7 0 8 4.1 13.2 4.1 5.1 12.1 7.9l13.6 4.9q2.8 1.2 4.9 3.1 2.1 1.9 2.1 5.5 0 4.5-2.6 6.8-2.7 2.2-7.2 2.2-4.9 0-7.6-2.9-2.5-3.1-2.5-8.1zm85.2-24.1h-19.8v-3q0-2.7 0.4-5.3 0.5-2.7 1.7-4.8 1.1-2.3 2.9-3.5 2-1.4 4.9-1.4 3 0 4.8 1.2 2 1.2 3 3.5 1.1 2.3 1.5 5.7 0.4 3.2 0.6 7.6zm-19.8 17.5v-6h38.3v-4.4q0-8.7-1.1-15.7-1.1-7.2-4.2-12.1-3.1-5.1-8.6-7.7-5.3-2.9-13.8-2.9-9.8 0-15.7 3.3-5.9 3.2-9.1 8.7-3.1 5.5-4.3 12.5-0.9 7-0.9 14.6 0 7.2 0.5 14.4 0.7 7.1 3.5 12.9 2.8 5.8 8.8 9.3 5.9 3.5 16.4 3.5 13.9 0 20.4-6.9 6.5-6.9 7-20.1h-17.4q-0.9 7.2-3.1 10.7-2.3 3.5-7.2 3.5-2.6 0-4.5-1.4-1.8-1.5-2.9-3.9-1.2-2.6-1.7-5.7-0.4-3.2-0.4-6.6zm86.1 21.8h0.2v31.4h19.4v-100h-18.5v8h-0.3q-3.2-5.3-7.3-7.6-4-2.4-9.9-2.4-11.9 0-17.5 9.5-5.7 9.2-5.7 30.3 0 21.1 5.7 30.3 5.6 9.1 17.5 9.1 5.5 0 9.3-2 4-2.1 7.1-6.6zm0.2-30.8q0 12.4-1.9 18.7-1.9 6.2-8.3 6.2-6.4 0-8.3-6.2-1.9-6.3-1.9-18.7 0-12.3 1.9-18.5 1.9-6.4 8.3-6.4 6.4 0 8.3 6.4 1.9 6.2 1.9 18.5zm41.2 49.3h-14.8v14h32.2v-125.8h-32.2v14h14.8z"/>
</svg>